<?xml version="1.0" encoding="utf-8"?>
<!-- Generator: Adobe Illustrator 21.1.0, SVG Export Plug-In . SVG Version: 6.00 Build 0)  -->
<svg version="1.1" id="Layer_1" xmlns="http://www.w3.org/2000/svg" xmlns:xlink="http://www.w3.org/1999/xlink" x="0px" y="0px"
	 viewBox="0 0 30 30" style="enable-background:new 0 0 30 30;" xml:space="preserve">
<g>
	<polygon points="19.2,7.9 22.7,7.9 19.2,4.6 	"/>
	<path d="M18.1,8.4V3.9H7.4c-0.6,0-1.1,0.5-1.1,1v20c0,0.6,0.5,1,1.1,1h15.1c0.6,0,1.1-0.5,1.1-1v-16h-4.9
		C18.4,8.9,18.1,8.7,18.1,8.4z M12.6,18.7c0.2,0.2,0.2,0.6-0.1,0.7c-0.1,0.1-0.2,0.1-0.3,0.1c-0.1,0-0.3-0.1-0.4-0.2l-1.7-2
		c-0.2-0.2-0.2-0.5,0-0.7l1.7-2c0.2-0.2,0.5-0.3,0.7-0.1c0.2,0.2,0.3,0.5,0.1,0.7L11.2,17L12.6,18.7z M16,13.7l-1,6.7
		c0,0.3-0.3,0.4-0.5,0.4c0,0-0.1,0-0.1,0c-0.3,0-0.5-0.3-0.4-0.6l1-6.7c0-0.3,0.3-0.5,0.6-0.4S16,13.4,16,13.7z M19.8,17.3l-1.7,2
		c-0.1,0.1-0.3,0.2-0.4,0.2c-0.1,0-0.2,0-0.3-0.1c-0.2-0.2-0.3-0.5-0.1-0.7l1.4-1.7l-1.4-1.7c-0.2-0.2-0.2-0.6,0.1-0.7
		s0.6-0.2,0.7,0.1l1.7,2C20,16.8,20,17.1,19.8,17.3z"/>
</g>
</svg>
