<?xml version="1.0" encoding="utf-8"?>
<!-- Generator: Adobe Illustrator 21.1.0, SVG Export Plug-In . SVG Version: 6.00 Build 0)  -->
<svg version="1.1" id="Layer_1" xmlns="http://www.w3.org/2000/svg" xmlns:xlink="http://www.w3.org/1999/xlink" x="0px" y="0px"
	 viewBox="0 0 30 30" style="enable-background:new 0 0 30 30;" xml:space="preserve">
<g>
	<path d="M26.3,6.8h-3.1c-1.5,0-5.1-0.2-5.1-2.1c0-0.6-0.5-1-1-1h-1c0-0.6-0.5-1-1-1s-1,0.5-1,1h-1c-0.6,0-1,0.5-1,1
		c0,1.9-3.6,2.1-5.1,2.1H3.7c-0.6,0-1,0.5-1,1s0.5,1,1,1h1.7l-1.7,5.9c0,0,0,0,0,0c0,0,0,0.1,0,0.1c0,0,0,0.1,0,0.1c0,0,0,0,0,0v1
		c0,1.7,1.4,3.1,3.1,3.1s3.1-1.4,3.1-3.1v-1c0,0,0,0,0,0c0,0,0-0.1,0-0.1c0,0,0-0.1,0-0.1c0,0,0,0,0,0L8.1,8.8
		c3.9-0.3,5.3-1.7,5.7-3H14v19.5h-3.1c-0.6,0-1,0.5-1,1s0.5,1,1,1h8.2c0.6,0,1-0.5,1-1s-0.5-1-1-1H16V5.8h0.2c0.4,1.3,1.8,2.8,5.7,3
		l-1.7,5.9c0,0,0,0,0,0c0,0,0,0.1,0,0.1c0,0,0,0.1,0,0.1c0,0,0,0,0,0v1c0,1.7,1.4,3.1,3.1,3.1c1.7,0,3.1-1.4,3.1-3.1v-1c0,0,0,0,0,0
		c0,0,0-0.1,0-0.1c0,0,0-0.1,0-0.1c0,0,0,0,0,0l-1.7-5.9h1.7c0.6,0,1-0.5,1-1S26.8,6.8,26.3,6.8z M6.1,14l0.7-2.4L7.5,14H6.1z
		 M22.5,14l0.7-2.4l0.7,2.4H22.5z"/>
</g>
</svg>
