<?xml version="1.0" encoding="utf-8"?>
<!-- Generator: Adobe Illustrator 21.1.0, SVG Export Plug-In . SVG Version: 6.00 Build 0)  -->
<svg version="1.1" id="Layer_1" xmlns="http://www.w3.org/2000/svg" xmlns:xlink="http://www.w3.org/1999/xlink" x="0px" y="0px"
	 viewBox="0 0 30 30" style="enable-background:new 0 0 30 30;" xml:space="preserve">
<path d="M5,14.1l3,1.2c-0.3,0.9-0.6,1.7-0.8,2.6L7,18.5l4.3,4.3l0.5-0.1c0.9-0.2,1.8-0.5,2.6-0.8l1.2,3c0,0.1,0.2,0.1,0.3,0.1
	c0,0,0,0,0.1,0l1.9-1.9c0.6-0.6,0.9-1.5,0.9-2.3l-0.1-1.2c3.5-2.6,7-7.1,7.9-14.9c0.1-0.7-0.4-1.4-1.1-1.5c-0.1,0-0.2,0-0.3,0
	c-7.8,1-12.3,4.5-14.9,7.9L9.1,11c-0.9,0-1.7,0.3-2.3,0.9l-1.9,1.9C4.8,13.8,4.8,14,5,14.1C4.9,14.1,4.9,14.1,5,14.1z M17,9.5
	c0.9-0.9,2.4-0.9,3.3,0c0.9,0.9,0.9,2.4,0,3.3c-0.9,0.9-2.4,0.9-3.3,0C16.1,11.9,16.1,10.4,17,9.5C17,9.5,17,9.5,17,9.5z M4.4,23.1
	c-0.5-0.2-1-0.2-1.5-0.1c-0.1,0-0.2,0-0.3-0.1c-0.1-0.1-0.1-0.2-0.1-0.3c0.5-1.2,2-3.6,4.6-1.6c0.1,0,0.1,0.1,0,0.2c0,0,0,0,0,0
	c-0.7,0.6-1.1,1.4-1.1,2.3c0,0.1,0.1,0.2,0.2,0.2c0.9,0,1.8-0.4,2.3-1.1c0-0.1,0.1-0.1,0.2,0c0,0,0,0,0,0c0.4,0.4,1.4,1.9,0.3,3.2
	c-0.5,0.6-1.2,1-1.9,1c-1.1,0.1-3.1,0.5-3.9,1.4c-0.1,0.1-0.3,0.1-0.4,0c0,0-0.1-0.1-0.1-0.1C2.5,27.2,2,25,4.4,23.1z"/>
</svg>
