<?xml version="1.0" encoding="utf-8"?>
<!-- Generator: Adobe Illustrator 17.1.0, SVG Export Plug-In . SVG Version: 6.00 Build 0)  -->
<!DOCTYPE svg PUBLIC "-//W3C//DTD SVG 1.1//EN" "http://www.w3.org/Graphics/SVG/1.1/DTD/svg11.dtd">
<svg version="1.1" id="Layer_1" xmlns="http://www.w3.org/2000/svg" xmlns:xlink="http://www.w3.org/1999/xlink" x="0px" y="0px"
	 viewBox="0 0 23.5 10.2" enable-background="new 0 0 23.5 10.2" xml:space="preserve">
<g>
	<path fill="#191919" d="M0,0.1l0.1,0.3c1,5.7,5.9,9.8,11.7,9.8c5.8,0,10.7-4.1,11.7-9.8l0.1-0.3H0z"/>
	<g>
		<path fill="#605D5A" d="M3.3,0.6H1.9C1.9,0.4,1.8,0.2,1.8,0v0h1.3l0,0C3.2,0.2,3.2,0.4,3.3,0.6 M4.9,0.6H3.6
			C3.5,0.4,3.5,0.2,3.4,0h1.2C4.7,0.2,4.8,0.4,4.9,0.6 M18.3,0.6H5.2c0-0.1,0-0.1-0.1-0.2C5.1,0.3,5,0.2,5,0l0,0h13.5l0,0
			c0,0.1-0.1,0.3-0.1,0.4C18.3,0.5,18.3,0.6,18.3,0.6 M19.9,0.6h-1.3c0.1-0.2,0.1-0.4,0.2-0.6h1.3C20,0.2,20,0.4,19.9,0.6 M21.6,0.6
			h-1.4c0.1-0.2,0.1-0.4,0.1-0.6h1.4C21.7,0.2,21.7,0.4,21.6,0.6 M0.7,0.6c1.1,5.2,5.6,9,11,9s10-3.7,11-9H22C22,0.4,22,0.2,22.1,0
			H1.5c0,0.2,0.1,0.4,0.1,0.6H0.7 M11.8,10.2C6,10.2,1,6.1,0.1,0.4L0,0h23.5l-0.1,0.4C22.5,6.1,17.6,10.2,11.8,10.2"/>
		<path fill="#F7BE0F" d="M6.7,3.5c0,2.8,2.3,5.1,5.1,5.1s5.1-2.3,5.1-5.1c0-1.1-0.3-2.1-0.9-2.9H7.6C7,1.5,6.7,2.5,6.7,3.5"/>
		<path fill="#191919" d="M14.4,3.8c0,1.4-1.2,2.6-2.6,2.6c-1.4,0-2.6-1.2-2.6-2.6s1.2-2.6,2.6-2.6C13.2,1.2,14.4,2.4,14.4,3.8"/>
		<path fill="#F79D0F" d="M14.7,4.6l0.1-0.1c0.1-0.1,0.3-0.1,0.4-0.2l0.1,0c0.6-0.3,1.1-0.6,1.5-1c0-0.1,0-0.3,0-0.4
			c-0.7,0.7-1.5,1.2-2.5,1.5c0,0.1-0.1,0.2-0.1,0.4l0.1,0C14.4,4.7,14.6,4.6,14.7,4.6 M8.4,4.3c0.1,0.1,0.3,0.1,0.4,0.2l0.1,0.1
			c0.1,0.1,0.2,0.1,0.3,0.1l0,0c0-0.1-0.1-0.2-0.1-0.4C8.2,4,7.4,3.5,6.7,2.8c0,0.1,0,0.3,0,0.4C7.2,3.6,7.7,4,8.4,4.3L8.4,4.3
			 M11.8,6.9L11.8,6.9c-1.8,0-3.5-0.6-4.9-1.6c0.1,0.2,0.2,0.4,0.3,0.6c1,0.6,2.2,1,3.4,1.2c0.1,0,0.2,0,0.3,0c0.1,0,0.2,0,0.3,0
			c0.2,0,0.4,0,0.7,0c0.2,0,0.5,0,0.7,0c0.1,0,0.2,0,0.3,0c0.1,0,0.2,0,0.3,0c1.1-0.2,2.2-0.5,3.1-1.1c0.1-0.2,0.2-0.4,0.3-0.6
			C15.2,6.3,13.5,6.9,11.8,6.9L11.8,6.9 M11.9,8.3l-0.1,0c-0.9,0-1.8-0.2-2.7-0.4c0.8,0.5,1.7,0.8,2.7,0.8c0.9,0,1.8-0.2,2.5-0.7
			c-0.7,0.2-1.5,0.3-2.3,0.3L11.9,8.3"/>
		<path fill="#302E2D" d="M16.9,3.2c0-0.1,0-0.3,0-0.4c0.6-0.6,1.1-1.3,1.4-2.2h0.3C18.2,1.6,17.6,2.5,16.9,3.2 M6.7,3.2
			C5.9,2.5,5.3,1.6,4.9,0.6h0.3c0.4,0.9,0.9,1.6,1.5,2.2C6.7,3,6.7,3.1,6.7,3.2 M16.3,5.9c0.1-0.2,0.2-0.4,0.3-0.6
			c1.6-1.1,2.8-2.8,3.4-4.7h0.3c0,0,0,0,0,0C19.6,3,18.2,4.8,16.3,5.9 M7.3,6c-1.9-1.1-3.4-3-4-5.3c0,0,0,0,0,0h0.3
			c0.5,2,1.8,3.6,3.4,4.8C7.1,5.6,7.2,5.8,7.3,6 M11.8,8.7c-4.8,0-9-3.4-10.2-8h0.3c0.9,3.5,3.8,6.3,7.2,7.3
			c0.6,0.4,1.4,0.6,2.1,0.7C11.4,8.6,11.6,8.6,11.8,8.7C11.8,8.6,11.8,8.6,11.8,8.7c1,0,1.9-0.3,2.6-0.7c3.5-1,6.3-3.7,7.2-7.3H22
			C20.8,5.2,16.5,8.7,11.8,8.7"/>
		<path fill="#74716D" d="M22,0.6h-0.3c0.1-0.2,0.1-0.4,0.1-0.6h-1.4c0,0.2-0.1,0.4-0.1,0.6h-0.3C20,0.4,20,0.2,20.1,0h-1.3
			c-0.1,0.2-0.1,0.4-0.2,0.6h-0.3c0-0.1,0-0.1,0.1-0.2c0-0.1,0.1-0.3,0.1-0.4l0,0H5l0,0c0,0.1,0.1,0.3,0.1,0.4c0,0.1,0,0.1,0.1,0.2
			H4.9C4.8,0.4,4.7,0.2,4.7,0H3.4c0,0.2,0.1,0.4,0.1,0.6H3.3C3.2,0.4,3.2,0.2,3.1,0l0,0H1.8c0,0.2,0.1,0.4,0.1,0.6H1.6
			c0-0.2-0.1-0.4-0.1-0.6h20.6C22,0.2,22,0.4,22,0.6"/>
		<path fill="#F0C333" d="M16.8,3.2c0-0.1,0-0.3,0-0.4c0,0,0,0,0,0C16.8,2.9,16.9,3,16.8,3.2C16.9,3.2,16.9,3.2,16.8,3.2 M6.7,3.3
			C6.7,3.2,6.7,3.2,6.7,3.3c0-0.1,0-0.3,0-0.4c0,0,0,0,0,0C6.7,3,6.7,3.1,6.7,3.3C6.7,3.2,6.7,3.2,6.7,3.3C6.7,3.2,6.7,3.2,6.7,3.3
			 M16.3,5.9c0.1-0.2,0.2-0.4,0.3-0.6c0,0,0,0,0,0C16.5,5.5,16.4,5.7,16.3,5.9C16.3,5.9,16.3,5.9,16.3,5.9 M7.3,6L7.3,6
			C7.2,5.8,7.1,5.6,7,5.4c0,0,0,0,0,0c0.1,0.2,0.1,0.3,0.2,0.5C7.2,5.9,7.3,5.9,7.3,6 M11.3,8.6c-0.8-0.1-1.5-0.3-2.1-0.7
			c0,0,0,0,0,0C9.8,8.3,10.5,8.5,11.3,8.6 M11.8,8.6C11.8,8.6,11.8,8.6,11.8,8.6c1,0,1.8-0.3,2.6-0.7c0,0,0,0,0,0
			C13.6,8.4,12.8,8.6,11.8,8.6"/>
		<path fill="#F0A932" d="M6.7,3.2C6.7,3.2,6.7,3.2,6.7,3.2c0-0.1,0-0.2,0-0.3c0,0,0,0,0,0C6.7,3,6.7,3.1,6.7,3.2 M7.2,5.9
			C7.1,5.7,7.1,5.5,7,5.4c0,0,0,0,0,0C7.1,5.5,7.2,5.7,7.2,5.9 M11.8,8.6c-0.2,0-0.3,0-0.5,0c-0.8-0.1-1.5-0.3-2.1-0.7c0,0,0,0,0,0
			C9.9,8.4,10.8,8.6,11.8,8.6C11.8,8.6,11.8,8.6,11.8,8.6C11.8,8.6,11.8,8.6,11.8,8.6C11.8,8.6,11.8,8.6,11.8,8.6"/>
	</g>
</g>
</svg>
